<?xml version="1.0" standalone="no"?>
<!DOCTYPE svg PUBLIC "-//W3C//DTD SVG 1.1//EN" "http://www.w3.org/Graphics/SVG/1.1/DTD/svg11.dtd" >
<svg xmlns="http://www.w3.org/2000/svg" xmlns:xlink="http://www.w3.org/1999/xlink" version="1.1">
	<defs>
		<font id="MatrixCodeNFI" horiz-adv-x="522" >
            <metadata>
                Created by FontForge 20190801 at Sat May 17 15:39:35 2003
                By Unknown
                Matrix Code NFI v1.0 - copyright (c) 2003 - Thomas W. Otto - Norfok Incredible Font Design - www.norfok.com
            </metadata>
			<font-face font-family="Matrix Code NFI"
					   font-weight="400"
					   font-stretch="normal"
					   units-per-em="1000"
					   panose-1="2 0 0 0 0 0 0 0 0 0"
					   ascent="800"
					   descent="-200"
					   x-height="598"
					   cap-height="573"
					   bbox="50 -121 1452 1001"
					   underline-thickness="50"
					   underline-position="-100"
					   unicode-range="U+0020-F000" />
			<missing-glyph horiz-adv-x="500" />
			<glyph glyph-name=".notdef" horiz-adv-x="500" />
			<glyph glyph-name=".null" horiz-adv-x="0" />
			<glyph glyph-name="nonmarkingreturn" horiz-adv-x="500" />
			<glyph glyph-name="space" unicode=" " horiz-adv-x="500" />
			<glyph glyph-name="space" unicode="&#xa0;" horiz-adv-x="500" />
			<glyph glyph-name="one" unicode="1" horiz-adv-x="343" d="M202 527l-152 -133v111l148 122h95v-627h-91v527z" />
			<glyph glyph-name="two" unicode="2" horiz-adv-x="482" d="M304 303q71 -48 99 -106q29 -58 29 -155v-23q0 -7 -1 -14h-371v76h277v18q0 22 -5 40.5t-17.5 36.5t-33 35.5t-51.5 38.5l-58 38q-66 43 -94 84.5t-28 92.5q0 79 54.5 125.5t148.5 46.5q48 0 89 -11t78 -34v-98q-55 37 -96.5 54t-74.5 17q-23 0 -42.5 -7t-33.5 -19 t-22 -28.5t-8 -35.5q0 -34 19.5 -61.5t70.5 -62.5l71 -48v0z" />
			<glyph glyph-name="three" unicode="3" horiz-adv-x="499" d="M50 595q87 32 156 32q57 0 102 -14.5t76.5 -41t48 -64t16.5 -84.5q0 -82 -48.5 -131.5t-135.5 -53.5l161 -161v-86h-376v76h267l-168 172v63q10 0 20.5 -1t11.5 -1q91 0 133.5 28.5t42.5 89.5q0 60 -39.5 95.5t-105.5 35.5q-42 0 -81 -10.5t-81 -33.5v90z" />
			<glyph glyph-name="four" unicode="4" horiz-adv-x="425" d="M291 141h-241v93l187 398h90l-195 -414h159v132h84v-350h-84v141z" />
			<glyph glyph-name="five" unicode="5" horiz-adv-x="455" d="M403 339q-34 5 -60 7t-45 2q-75 0 -116.5 -32.5t-41.5 -89.5q0 -75 60 -115.5t172 -40.5h20t13 1v-78h-24q-155 0 -243 61t-88 167q0 91 61 146q62 56 158 56q18 0 26.5 -0.5t16.5 -0.5l-7 130h-236v75h314z" />
			<glyph glyph-name="six" unicode="6" d="M263 71q57 0 88 35t31 96q0 57 -32 90.5t-89 33.5q-55 0 -88 -34.5t-33 -92.5t33 -93t90 -35zM302 632h114q-58 -51 -110 -110t-106 -135q19 8 38.5 11.5t39.5 3.5q42 0 77.5 -15.5t61.5 -42.5t40.5 -63t14.5 -78q0 -47 -15 -85.5t-43 -66t-66.5 -43t-84.5 -15.5 q-48 0 -87.5 15.5t-67.5 44t-43 69t-15 90.5q0 94 61 196t191 224z" />
			<glyph glyph-name="seven" unicode="7" horiz-adv-x="511" d="M139 81q0 97 30 179t93 157q32 39 51 62.5t28.5 37.5t12 21.5t2.5 14.5h-306v74h411v-29q0 -70 -75 -161q-2 -3 -5 -6t-8.5 -9.5t-16 -19t-27.5 -33.5q-54 -66 -79 -134t-25 -149v-86h-86v81z" />
			<glyph glyph-name="eight" unicode="8" d="M261 305q-66 -31 -93.5 -61.5t-27.5 -72.5q0 -48 32 -75.5t89 -27.5t89 27.5t32 75.5q0 42 -27.5 72.5t-93.5 61.5zM261 393q46 19 70.5 44t24.5 53q0 33 -25 52t-70 19t-70 -19t-25 -50q0 -30 24.5 -55t70.5 -44zM341 350q71 -38 101 -81.5t30 -106.5q0 -81 -54.5 -126 t-156.5 -45t-156.5 46t-54.5 131q0 59 30.5 101.5t100.5 80.5q-101 64 -101 145q0 66 48.5 103.5t132.5 37.5t132.5 -37t48.5 -100q0 -85 -101 -149z" />
			<glyph glyph-name="nine" unicode="9" d="M261 563q-54 0 -87.5 -35t-33.5 -92q0 -58 33 -93t88 -35q57 0 89 33.5t32 90.5q0 63 -32 97t-89 34zM296 0q-65 66 -111.5 124t-76.5 109.5t-44 98t-14 90.5q0 100 56.5 157.5t156.5 57.5q46 0 84.5 -14.5t66.5 -41.5t43 -65t15 -85q0 -43 -14.5 -79.5t-40 -63.5 t-61.5 -42t-79 -15q-42 0 -77 16q38 -55 90.5 -116t124.5 -131h-119v0z" />
			<glyph glyph-name="A" unicode="A" horiz-adv-x="524" d="M258 511l-66 -265h132zM203 587h117l154 -587h-90l-41 169h-170l-42 -169h-81z" />
			<glyph glyph-name="B" unicode="B" horiz-adv-x="517" d="M134 497v-161h100q72 0 102.5 18t30.5 60q0 43 -30.5 63t-99.5 20h-103zM134 261v-185h100q75 0 109 22t34 71q0 92 -135 92h-108zM50 573h206q94 0 145.5 -40.5t51.5 -115.5q0 -88 -73 -118q87 -31 87 -131q0 -50 -18 -82t-49 -51.5t-72 -27t-87 -7.5h-191v573z" />
			<glyph glyph-name="C" unicode="C" horiz-adv-x="450" d="M398 448h-87q-5 64 -69 64q-51 0 -76.5 -56t-25.5 -162q0 -112 25.5 -170t76.5 -58q32 0 51 17.5t20 47.5h87q-8 -66 -48.5 -103.5t-103.5 -37.5q-96 0 -147 79t-51 229q0 52 10 103.5t33 92.5t60.5 67t92.5 26q64 0 104.5 -36.5t47.5 -102.5z" />
			<glyph glyph-name="D" unicode="D" horiz-adv-x="454" d="M133 498v-421q41 0 74.5 15.5t57 42t36 61.5t12.5 76q0 42 -12 80.5t-35 68.5t-56.5 50.5t-76.5 26.5zM50 573h64q61 0 114 -23.5t92 -63.5t61.5 -93.5t22.5 -113.5q0 -65 -20.5 -116.5t-58 -87.5t-90 -55.5t-117.5 -19.5h-68v573z" />
			<glyph glyph-name="E" unicode="E" horiz-adv-x="455" d="M50 573h346v-72h-263v-162h231v-76h-231v-186h272v-77h-355v573z" />
			<glyph glyph-name="F" unicode="F" horiz-adv-x="401" d="M50 578h301v-73h-218v-162h179v-76h-179v-267h-83v578z" />
			<glyph glyph-name="G" unicode="G" horiz-adv-x="496" d="M237 311h209v-286q-55 -19 -93.5 -27t-71.5 -8q-109 0 -170 79.5t-61 224.5q0 69 16 124t46.5 93.5t74 58.5t97.5 20q66 0 108.5 -31t53.5 -88h-87q-13 22 -31.5 34t-41.5 12q-146 0 -146 -222q0 -228 142 -228q34 0 81 19v149h-126v76z" />
			<glyph glyph-name="H" unicode="H" horiz-adv-x="467" d="M50 583h83v-244h201v244h83v-583h-83v263h-201v-263h-83v583z" />
			<glyph glyph-name="I" unicode="I" horiz-adv-x="394" d="M50 77h105v422h-87v74h258v-74h-87v-422h105v-77h-294v77z" />
			<glyph glyph-name="J" unicode="J" horiz-adv-x="396" d="M133 188v-31q0 -51 14.5 -70.5t49.5 -19.5q66 0 66 82v434h83v-407q0 -96 -36 -140.5t-112 -44.5q-148 0 -148 164v33h83z" />
			<glyph glyph-name="K" unicode="K" horiz-adv-x="551" d="M50 583h83v-242l236 242h112l-279 -276l299 -307h-117l-251 268v-268h-83v583z" />
			<glyph glyph-name="L" unicode="L" horiz-adv-x="477" d="M50 578h83v-501h294v-77h-377v578z" />
			<glyph glyph-name="M" unicode="M" horiz-adv-x="512" d="M50 583h135l71 -257l71 257h135v-583h-83v500l-91 -310h-68l-91 312v-502h-79v583z" />
			<glyph glyph-name="N" unicode="N" horiz-adv-x="486" d="M50 583h100l207 -435v435h79v-583h-96l-211 439v-439h-79v583z" />
			<glyph glyph-name="O" unicode="O" horiz-adv-x="516" d="M258 69q54 0 86 60t32 165t-32 164.5t-86 59.5t-86 -59.5t-32 -164.5t32 -165t86 -60zM466 292q0 -132 -59 -217q-59 -84 -149 -84q-91 0 -149 84q-59 85 -59 217t59 217q58 84 149 84q90 0 149 -84q59 -85 59 -217z" />
			<glyph glyph-name="P" unicode="P" horiz-adv-x="493" d="M133 504v-186h94q69 0 97.5 21.5t28.5 70.5q0 94 -118 94h-102zM50 578h200q91 0 142 -44.5t51 -122.5t-49 -123t-134 -45h-127v-243h-83v578z" />
			<glyph glyph-name="Q" unicode="Q" horiz-adv-x="555" d="M300 128l-117 154h105l57 -74q12 43 12 91q0 100 -30 159t-79 59q-54 0 -81 -52.5t-27 -155.5q0 -94 30 -146.5t82 -52.5q15 0 26 4.5t22 13.5zM405 128l100 -128h-106l-49 65q-26 -17 -50 -25t-49 -8q-55 0 -93.5 25.5t-62.5 66t-34.5 91.5t-10.5 102t10.5 100.5 t34.5 88.5t62 63t92 24t92 -26t62 -67t35 -91.5t11 -100.5q0 -54 -11 -97t-33 -83z" />
			<glyph glyph-name="R" unicode="R" horiz-adv-x="489" d="M133 504v-185h64q122 0 122 89q0 51 -29 73.5t-95 22.5h-62zM50 578h156q203 0 203 -166q0 -63 -30 -102.5t-90 -52.5l150 -257h-100l-135 243h-71v-243h-83v578z" />
			<glyph glyph-name="S" unicode="S" horiz-adv-x="466" d="M321 441q-2 35 -25 55t-62 20t-64 -21.5t-25 -53.5q0 -27 21.5 -49t79.5 -50q50 -24 82.5 -46t52 -44.5t27.5 -46.5t8 -52q0 -73 -52.5 -116.5t-140.5 -43.5q-82 0 -126 43t-47 125h90v-3q0 -43 22 -66.5t62 -23.5q45 0 73.5 24.5t28.5 61.5q0 31 -20 53q-18 21 -96 59 q-44 21 -73.5 41t-47.5 41t-25.5 43.5t-7.5 47.5q0 38 15 66.5t40.5 47.5t59 28.5t69.5 9.5q75 0 120 -40t50 -110h-89z" />
			<glyph glyph-name="T" unicode="T" horiz-adv-x="491" d="M204 502h-154v76h391v-76h-154v-502h-83v502z" />
			<glyph glyph-name="U" unicode="U" horiz-adv-x="489" d="M50 583h83v-373q0 -41 6.5 -68t20 -43t35 -23t51.5 -7q61 0 87 31.5t26 108.5v374h80v-387q0 -106 -48.5 -155.5t-151.5 -49.5q-47 0 -82.5 16t-59 43.5t-35.5 64.5t-12 80v388z" />
			<glyph glyph-name="V" unicode="V" horiz-adv-x="541" d="M50 583h89l133 -503l131 503h88l-161 -583h-119z" />
			<glyph glyph-name="W" unicode="W" horiz-adv-x="514" d="M50 583h86q1 -131 8.5 -241.5t22.5 -207.5l56 222h75l59 -222q7 60 11.5 110t7.5 101t5 108t4 130h79q-2 -84 -5 -158t-9.5 -144.5t-17 -139t-27.5 -141.5h-87l-59 212l-57 -212h-89q-18 72 -29.5 140.5t-18 138.5t-9.5 144.5t-6 159.5z" />
			<glyph glyph-name="X" unicode="X" horiz-adv-x="530" d="M213 297l-162 286h100l113 -207l115 207h92l-156 -281l165 -302h-99l-118 223l-118 -223h-95z" />
			<glyph glyph-name="Y" unicode="Y" d="M224 263l-174 320h99l117 -224l115 224h91l-165 -311v-272h-83v263z" />
			<glyph glyph-name="Z" unicode="Z" horiz-adv-x="446" d="M50 66l222 432h-219v75h315v-69l-219 -428h247v-76h-346v66z" />
			<glyph glyph-name="a" unicode="a" horiz-adv-x="486" d="M393 703l43 -51q-2 -290 -75 -463t-221 -240l-43 74q102 48 160 139t74 225h-262v86h274q5 28 7 50t2 44v18q0 10 -2 20h-300v86z" />
			<glyph glyph-name="b" unicode="b" horiz-adv-x="464" d="M191 199v211l67 -4v-82q53 55 70 141h-278v74l318 12l46 -74q-28 -76 -57 -132t-68 -99l-31 39v-86q0 -175 -102 -277l-51 51q86 95 86 226z" />
			<glyph glyph-name="c" unicode="c" horiz-adv-x="428" d="M50 191q171 149 266 414l62 -43q-4 -15 -13.5 -37.5t-22.5 -48.5t-28 -54t-29 -55v-441h-67v344q-27 -40 -58.5 -75t-66.5 -70z" />
			<glyph glyph-name="d" unicode="d" horiz-adv-x="448" d="M253 465h118l27 -35q0 -189 -42.5 -319.5t-133.5 -208.5l-47 59q78 66 115.5 173t37.5 257h-211v-188h-67v262h137v160h66v-160z" />
			<glyph glyph-name="e" unicode="e" horiz-adv-x="444" d="M74 496h285v-74h-106v-309h141v-74h-344v74h137v309h-113v74z" />
			<glyph glyph-name="f" unicode="f" horiz-adv-x="486" d="M304 453h132v-74h-132v-379q0 -78 -79 -78h-35l-11 74h39q11 0 15 6t4 18v238q-23 -75 -58.5 -138.5t-81.5 -123.5l-47 55q58 70 99 152t69 176h-161v74h180v176h67v-176z" />
			<glyph glyph-name="g" unicode="g" horiz-adv-x="495" d="M249 355l78 -410l-66 -27l-70 406l-118 -62l-23 74l129 59l-39 195l66 23l32 -191l175 86l32 -51l-86 -262l-51 43l55 176z" />
			<glyph glyph-name="h" unicode="h" horiz-adv-x="482" d="M96 398v75h223v-368h113v-74h-382v74h203v293h-157z" />
			<glyph glyph-name="i" unicode="i" horiz-adv-x="378" d="M50 74h211v164h-199v74h199v157h-211v74h278v-582h-67v39h-211v74z" />
			<glyph glyph-name="j" unicode="j" horiz-adv-x="448" d="M398 531q-1 -96 -14 -187t-40 -170.5t-69 -142t-100 -101.5l-46 62q102 63 150.5 201t48.5 350zM105 277l-55 192l55 35l55 -195zM211 332l-55 188l51 31l54 -184z" />
			<glyph glyph-name="underscore" unicode="_" horiz-adv-x="526" d="M50 414h426v-74h-426v74z" />
			<glyph glyph-name="l" unicode="l" horiz-adv-x="534" d="M390 605l-336 -11l-4 86l375 19l59 -74q-20 -52 -38 -94.5t-36.5 -78t-37 -65.5t-37.5 -55l-35 39q0 -145 -33 -255.5t-103 -185.5l-55 66q58 63 85.5 154.5t27.5 212.5v176h78v-117q35 51 56.5 95.5t33.5 87.5z" />
			<glyph glyph-name="m" unicode="m" horiz-adv-x="483" d="M50 277q97 87 177.5 207t138.5 282l67 -67q-10 -19 -21 -44.5t-25 -55t-32 -62.5t-40 -68v-535h-78v425q-31 -48 -68 -88.5t-80 -75.5z" />
			<glyph glyph-name="n" unicode="n" horiz-adv-x="490" d="M179 -16q91 87 137 217t46 307h-234v-231h-78v317h152v199h78v-199h160v-106q0 -184 -52.5 -328t-161.5 -250z" />
			<glyph glyph-name="o" unicode="o" d="M50 78v86h176v383h-137v86h352v-86h-137v-383h168v-86h-422z" />
			<glyph glyph-name="p" unicode="p" horiz-adv-x="561" d="M354 570h157v-86h-157v-476q0 -43 -19.5 -62.5t-62.5 -19.5h-54l-12 86h47q12 0 17.5 5.5t5.5 21.5v293q-31 -94 -73.5 -169.5t-102.5 -135.5l-50 67q147 155 203 390h-188v86h211v211h78v-211z" />
			<glyph glyph-name="q" unicode="q" horiz-adv-x="487" d="M54 477v85h144v215h79v-211h160v-281q0 -54 -2 -111t-14.5 -103.5t-38.5 -76t-74 -29.5h-47l-4 90h39q20 0 31.5 7.5t15.5 27.5q2 9 4 28.5t4 61.5t3 114t1 186h-82q-8 -169 -49 -300.5t-119 -230.5l-55 63q66 87 103.5 201t44.5 264h-144z" />
			<glyph glyph-name="r" unicode="r" horiz-adv-x="560" d="M229 504l-137 -31l-7 86l136 27l-23 184l66 15l24 -180l144 36l8 -86l-140 -32l19 -187l184 43l7 -82l-183 -39l39 -313l-78 -19l-35 316l-196 -43l-7 86l199 39z" />
			<glyph glyph-name="s" unicode="s" horiz-adv-x="494" d="M175 -90l-47 70q203 196 227 555h-137q-32 -132 -109 -250l-59 55q60 82 94.5 194.5t49.5 254.5l79 -27q-8 -24 -15 -60t-21 -81l161 12l46 -67q-21 -227 -88.5 -388.5t-180.5 -267.5z" />
			<glyph glyph-name="t" unicode="t" horiz-adv-x="553" d="M164 -20q66 67 103 187.5t49 293.5h-129q-12 -60 -31.5 -108t-46.5 -91l-59 50q43 72 72.5 186t48.5 279l75 -23q-4 -33 -13 -86.5t-23 -120.5h293v-86h-113q-12 -185 -53 -319t-111 -216z" />
			<glyph glyph-name="u" unicode="u" horiz-adv-x="452" d="M324 148v364h-274v86h352v-586h-78v50h-274v86h274z" />
			<glyph glyph-name="v" unicode="v" horiz-adv-x="564" d="M409 520h105v-86h-105v-55q0 -150 -40.5 -260.5t-127.5 -188.5l-55 70q75 66 110 160t35 215v59h-110v-207h-78v207h-93v86h93v214h78v-214h110v246h78v-246z" />
			<glyph glyph-name="w" unicode="w" horiz-adv-x="542" d="M101 51q109 54 190.5 171t141.5 301l59 -62q-51 -164 -135.5 -284.5t-216.5 -207.5zM50 457l43 70q84 -84 113 -136l-46 -67q-28 39 -55 72.5t-55 60.5zM109 687l43 71q39 -39 66.5 -72.5t42.5 -56.5l-43 -74q-72 102 -109 132z" />
			<glyph glyph-name="x" unicode="x" horiz-adv-x="542" d="M320 590l-207 -28l-12 90l258 35l59 -74q-25 -81 -48 -146t-46 -123q54 -87 97 -160.5t71 -136.5l-63 -70q-43 97 -78 167.5t-66 113.5q-43 -94 -87.5 -164t-92.5 -121l-55 62q99 111 165 248.5t105 306.5z" />
			<glyph glyph-name="y" unicode="y" horiz-adv-x="530" d="M257 504l188 66l35 -66q-19 -78 -46.5 -152.5t-62.5 -144.5l-63 43q35 66 56.5 121t29.5 98l-137 -51v-297q0 -47 47 -47h149v-86h-188q-86 0 -86 86v317l-117 -43l-12 93l129 36v269h78v-242z" />
			<glyph glyph-name="z" unicode="z" horiz-adv-x="486" d="M120 383q-8 51 -25.5 113.5t-44.5 132.5l66 47q31 -82 50.5 -144.5t23.5 -101.5zM436 668q-7 -119 -27 -230.5t-53 -207.5t-80.5 -171.5t-108.5 -121.5l-47 75q106 91 164.5 257.5t69.5 417.5z" />
			<glyph glyph-name="exclam" unicode="!" horiz-adv-x="467" d="M155 -86l-55 63q63 58 104 124.5t64 144.5q-23 35 -46.5 62.5t-42.5 46.5l35 75q23 -24 42.5 -47.5t39.5 -46.5q15 48 23 99.5t8 111.5h-125q-24 -103 -94 -250l-58 47q51 97 84 210t48 243l71 -27q-7 -38 -13.5 -70t-17.5 -67l156 8l39 -51q-14 -109 -28.5 -187.5 t-34.5 -136.5l39 -63l-39 -78l-31 51q-23 -67 -65.5 -133t-102.5 -129z" />
			<glyph glyph-name="quotedbl" unicode="&#x22;" horiz-adv-x="534" d="M93 633q82 4 160 25.5t153 64.5l39 -75q-31 -24 -60.5 -37t-60.5 -21v-160h160v-86h-160q0 -257 -133 -422l-59 74q60 66 87 151.5t27 196.5h-196v86h196v140q-36 -8 -71 -11.5t-70 -3.5z" />
			<glyph glyph-name="numbersign" unicode="#" d="M179 648l59 47q19 -48 36.5 -101.5t29.5 -116.5l-66 -47q-12 63 -25.5 117.5t-33.5 100.5zM472 656q-3 -272 -75.5 -450.5t-217.5 -271.5l-47 78q250 139 258 664zM109 637q19 -43 36.5 -100t33.5 -127l-66 -47q-12 67 -27.5 123t-35.5 104z" />
			<glyph glyph-name="dollar" unicode="$" horiz-adv-x="534" d="M242 258v125h-192v86h434v-86h-164v-125q0 -212 -102 -344l-62 63q86 109 86 281zM418 625h-301v86h301v-86z" />
			<glyph glyph-name="percent" unicode="%" horiz-adv-x="377" d="M288 230q-48 51 -88.5 84.5t-71.5 52.5v-406h-78v789h78v-281q63 -39 113.5 -78t85.5 -79z" />
			<glyph glyph-name="ampersand" unicode="&#x26;" horiz-adv-x="550" d="M320 516h180v-86h-180v-118q0 -121 -35 -220t-110 -174l-50 66q117 120 117 352v94h-192v86h192v242h78v-242z" />
			<glyph glyph-name="quotesingle" unicode="'" d="M472 180v-86h-422v86h422zM410 625v-86h-301v86h301z" />
			<glyph glyph-name="parenleft" unicode="(" horiz-adv-x="502" d="M89 578l-4 86l293 27l47 -66q-17 -91 -39.5 -168t-58.5 -152q32 -48 63 -102t62 -117l-62 -59q-31 67 -56.5 113.5t-45.5 74.5q-27 -60 -76 -120t-119 -126l-43 82q66 51 113 111.5t78 130.5q-35 48 -62 80.5t-47 48.5l43 70q31 -31 56.5 -60.5t45.5 -56.5 q23 60 38.5 116t19.5 111z" />
			<glyph glyph-name="parenright" unicode=")" horiz-adv-x="549" d="M300 617l78 12l39 -67q-29 -60 -57.5 -109.5t-59.5 -97.5v-425h-78v328q-23 -35 -56.5 -66.5t-72.5 -58.5l-43 70q82 55 148.5 140.5t121.5 199.5l-231 -23l-8 85l141 8v180h78v-176zM367 375q43 -51 76 -94t56 -82l-46 -70q-39 63 -72.5 107.5t-60.5 72.5z" />
			<glyph glyph-name="asterisk" unicode="*" horiz-adv-x="451" d="M108 -8l-58 78q211 229 265 657l86 -32q-46 -237 -118.5 -409.5t-174.5 -293.5z" />
			<glyph glyph-name="plus" unicode="+" horiz-adv-x="576" d="M50 86q86 188 117 469l74 -24q-23 -175 -54.5 -298.5t-70.5 -205.5zM448 43q-23 161 -56.5 291t-76.5 232l67 47q55 -130 90 -263.5t54 -275.5z" />
			<glyph glyph-name="comma" unicode="," horiz-adv-x="436" d="M128 473q133 23 242 93l16 -93q-63 -28 -127.5 -49.5t-130.5 -32.5v-278q0 -23 9.5 -33t29.5 -10h215l-12 -86h-223q-48 0 -72.5 25.5t-24.5 80.5v613h78v-230z" />
			<glyph glyph-name="hyphen" unicode="-" horiz-adv-x="490" d="M50 578v86l336 12l54 -63q-17 -260 -96 -417t-220 -219l-43 85q126 51 194 179.5t75 336.5h-300z" />
			<glyph glyph-name="hyphen" unicode="&#xad;" horiz-adv-x="490" d="M50 578v86l336 12l54 -63q-17 -260 -96 -417t-220 -219l-43 85q126 51 194 179.5t75 336.5h-300z" />
			<glyph glyph-name="period" unicode="." horiz-adv-x="572" d="M214 602q10 10 25 10q16 0 29 -10q11 -11 28.5 -40.5t39 -68.5t46 -84t49 -87t48 -77t43.5 -54l-58 -78q-60 99 -113.5 190.5t-101.5 176.5q-5 8 -8 8q-5 0 -8 -8q-54 -116 -125 -250l-58 67q7 9 22 35.5t33 60t36.5 70.5t34.5 67.5t26.5 50.5t11.5 21z" />
			<glyph glyph-name="slash" unicode="/" horiz-adv-x="561" d="M319 566h176v-86h-176v-546h-78v546h-172v86h172v219h78v-219zM50 94q27 58 50.5 134t38.5 170l71 -35q-22 -104 -44.5 -181t-53.5 -135zM440 59q-15 75 -38.5 146.5t-55.5 138.5l59 47q35 -67 62.5 -139t43.5 -147z" />
			<glyph glyph-name="colon" unicode=":" horiz-adv-x="530" d="M183 387q23 -28 42.5 -57t39.5 -60q35 63 64.5 133t48.5 148l-320 -24l-8 86l379 35l51 -70q-37 -106 -79 -201t-93 -182q23 -39 41 -76t33 -68l-62 -67q-51 118 -98 202t-86 130z" />
			<glyph glyph-name="semicolon" unicode=";" horiz-adv-x="432" d="M335 262q-70 48 -136.5 76.5t-124.5 40.5l15 90q87 -20 153 -49t117 -68zM50 125l24 90q82 -24 157.5 -63t150.5 -93l-31 -90q-82 58 -158 97t-143 59zM74 629l15 90q70 -12 136.5 -37.5t129.5 -60.5l-28 -86q-70 39 -134.5 62.5t-118.5 31.5z" />
			<glyph glyph-name="semicolon" unicode="&#x37e;" horiz-adv-x="432" d="M335 262q-70 48 -136.5 76.5t-124.5 40.5l15 90q87 -20 153 -49t117 -68zM50 125l24 90q82 -24 157.5 -63t150.5 -93l-31 -90q-82 58 -158 97t-143 59zM74 629l15 90q70 -12 136.5 -37.5t129.5 -60.5l-28 -86q-70 39 -134.5 62.5t-118.5 31.5z" />
			<glyph glyph-name="less" unicode="&#x3c;" horiz-adv-x="564" d="M382 387q39 -78 72 -168t60 -196l-74 -43l-27 106l-344 -51l-19 90l78 8q16 88 30 169.5t27 159.5t25 154t23 154l86 -36q-33 -170 -61.5 -315.5t-55.5 -281.5l187 23q-14 48 -29.5 89.5t-32.5 86.5z" />
			<glyph glyph-name="equal" unicode="=" horiz-adv-x="451" d="M307 746l82 -31q-17 -108 -35.5 -189t-38.5 -147q24 -27 45.5 -56.5t40.5 -60.5l-39 -90l-78 113q-31 -91 -76 -168.5t-108 -143.5l-50 70q63 66 105.5 144t69.5 168q-21 24 -35.5 40.5t-25.5 29t-19 22t-17 18.5l43 78q23 -23 44.5 -46.5t41.5 -47.5q15 55 29 129 t21 168z" />
			<glyph glyph-name="greater" unicode="&#x3e;" horiz-adv-x="530" d="M464 86l-11 -86h-137q-55 0 -84 25.5t-29 79.5v219h-153v86h153v180h-114v86h340v-86h-148v-180h199v-86h-199v-187q0 -28 11.5 -39.5t35.5 -11.5h136z" />
			<glyph glyph-name="question" unicode="?" horiz-adv-x="572" d="M358 316q28 60 47.5 111.5t27.5 99.5l-153 -70l74 -504l-78 -31l-66 496l-145 -63l-15 82l148 63l-35 238l70 16l36 -223l203 102l50 -78q-29 -88 -53.5 -161t-55.5 -136z" />
			<glyph glyph-name="asciicircum" unicode="^" horiz-adv-x="546" d="M496 145v-86h-446v86h250v363h-183v86h262v-449h117z" />
			<glyph glyph-name="backslash" unicode="\" horiz-adv-x="424" d="M374 -23h-78v58h-246v86h246v211h-230v86h230v187h-246v86h324v-714z" />
			<glyph glyph-name="bracketleft" unicode="[" horiz-adv-x="471" d="M50 406v86h371v-70q0 -181 -62 -307.5t-188 -204.5l-39 74q204 119 211 422h-293zM89 633v86h297v-86h-297z" />
			<glyph glyph-name="bracketright" unicode="]" horiz-adv-x="400" d="M272 750h78v-410q0 -289 -171 -422l-51 70q75 55 109.5 145t34.5 211v406zM50 715h78v-449h-78v449z" />
			<glyph glyph-name="braceleft" unicode="{" horiz-adv-x="580" d="M50 23q48 67 70.5 152.5t22.5 187.5v297h79v-312q0 -220 -118 -399zM272 703h78v-566q40 39 73 103t60 151l47 -71q-35 -102 -89 -183.5t-130 -156.5l-46 59z" />
			<glyph glyph-name="braceright" unicode="}" horiz-adv-x="479" d="M429 379q-39 -146 -119.5 -246.5t-212.5 -163.5l-47 58v672h82v-613q156 71 242 367z" />
			<glyph glyph-name="bar" unicode="|" horiz-adv-x="460" d="M332 109h-203v-66h-79v613h360v-594h-78v47zM332 195v375h-203v-375h203z" />
			<glyph glyph-name="asciitilde" unicode="~" horiz-adv-x="478" d="M428 691v-191q0 -359 -234 -539l-47 78q203 125 203 461v105h-222v-253h-78v339h378z" />
			<glyph glyph-name="k" unicode="k" horiz-adv-x="514" d="M464 461q-39 -196 -133 -314t-254 -163l-23 94q272 54 343 445zM218 516l-55 -71q-23 43 -52.5 88t-60.5 88l51 70q39 -46 68 -91t49 -84z" />
			<glyph glyph-name="zero" unicode="0" d="M472 313q0 -106 -14 -173.5t-43 -104.5q-18 -22 -55.5 -33t-98.5 -11q-63 0 -99.5 11t-55.5 35q-56 71 -56 276q0 103 14.5 173t41.5 105q19 24 55.5 35t99.5 11q108 0 146 -36q32 -30 48.5 -103t16.5 -185zM261 68q42 0 61.5 5t28.5 17q31 37 31 223q0 54 -2.5 94.5 t-7.5 70.5l-169 -406q19 -4 58 -4zM140 313q0 -48 2 -86.5t6 -67.5l162 402q-20 3 -49 3q-45 0 -65.5 -6.5t-28.5 -21.5q-14 -26 -20.5 -80.5t-6.5 -142.5z" />
		</font>
</defs>
</svg>
